<svg preserveAspectRatio="none" width="100%" height="100%" overflow="visible" style="display: block;" viewBox="0 0 60 30" fill="none" xmlns="http://www.w3.org/2000/svg">
<path id="Vector" d="M11.8186 30C11.8941 29.8596 11.9537 29.7024 11.9931 29.5236C12.3388 27.543 10.8697 24.3134 10.9749 22.1903C10.9029 20.3579 12.345 19.0774 13.9894 20.3167C16.92 22.3776 16.7337 27.7442 18.9377 29.9993H30.5625C30.6235 29.9148 30.6796 29.8246 30.7288 29.7275C31.2427 27.3893 27.8944 26.0096 26.9759 24.1038C25.5574 21.5113 25.4867 18.0721 24.9797 15.1387C24.7428 12.4665 23.2301 7.36395 26.2327 5.9395C29.2298 5.54759 29.5873 10.9995 30.0936 13.119C31.0044 17.6327 31.4166 22.3287 32.7388 26.7641C33.1385 27.9727 33.5839 29.1959 34.512 29.9986H43.4618C45.3479 28.0705 44.8139 23.6036 44.8298 21.1271C44.8243 17.4049 43.3108 7.46105 47.6925 6.05128C51.5486 5.93461 51.5853 12.2332 51.7522 15.0199C51.8125 17.7417 51.9441 20.5773 51.7972 23.3242C51.7176 24.5949 51.5409 25.8489 51.1503 27.0554C50.7527 28.3045 50.1764 29.3105 50.1757 29.9986H59.9366C60.0897 29.3734 59.9595 28.4128 59.6117 26.9241C59.298 25.0036 59.2696 23.0426 59.2218 21.0942V21.0649C58.8207 16.2914 60.3307 2.77764 56.0349 0.331138C55.7911 0.20539 55.4821 0.0950103 55.124 0.000699283H47.6849C47.1267 0.149501 46.6577 0.340918 46.3301 0.577744C42.9901 3.57125 42.7539 10.7137 42.4575 15.0723C42.2587 17.0235 42.6209 21.2857 40.9835 22.3147C38.9409 22.3538 38.2828 16.6442 37.9019 15.0094C37.2806 11.6722 36.8137 8.20436 36.0615 4.84689C35.5683 2.46606 34.8729 0.674149 32.8912 0H26.1081C25.7527 0.107584 25.4078 0.243812 25.0788 0.417065C24.2136 0.82365 23.6284 1.82544 22.705 1.99381C21.1341 1.74231 20.7892 0.575647 18.9855 0H8.38649C8.16415 0.0817362 7.96535 0.183034 7.79981 0.308782C7.19997 0.702793 6.74005 1.67105 6.32515 2.55408C5.63526 4.06865 4.85534 5.96535 4.22848 7.66714C2.16022 12.9528 0.958461 18.5492 0.306673 24.1464C0.191692 25.9963 -0.427541 28.352 0.511006 29.9979H11.8172L11.8186 30ZM4.11281 23.6134C4.16614 22.2281 4.46537 20.8225 4.77568 19.4637C5.3021 17.2296 5.89778 14.9514 6.46022 12.7516C7.04828 10.5964 7.53868 8.30636 8.73489 6.40477C9.66651 4.89789 11.3254 3.7445 13.0432 4.41446C16.3229 5.69499 17.8357 12.477 15.4654 15.1268L15.4488 15.1471C13.3965 17.4825 10.3488 18.0421 9.99206 21.7614C9.73439 23.6888 10.3093 26.3386 8.95516 27.8574C7.92933 28.9752 6.22471 28.6838 5.22313 27.5109C4.30052 26.4378 4.06363 25.0274 4.11212 23.6127L4.11281 23.6134Z" fill="var(--fill-0, #7960A9)"/>
</svg>
