<svg xmlns="http://www.w3.org/2000/svg" width="512" height="512" viewBox="0 0 64 64">
  <rect width="64" height="64" rx="12" fill="#7960a9"/>
  <path d="M13.8186 47C13.8941 46.8596 13.9537 46.7024 13.9931 46.5236C14.3388 44.543 12.8697 41.3134 12.9749 39.1903C12.9029 37.3579 14.345 36.0774 15.9894 37.3167C18.92 39.3776 18.7337 44.7442 20.9377 46.9993H32.5625C32.6235 46.9148 32.6796 46.8246 32.7288 46.7275C33.2427 44.3893 29.8944 43.0096 28.9759 41.1038C27.5574 38.5113 27.4867 35.0721 26.9797 32.1387C26.7428 29.4665 25.2301 24.3639 28.2327 22.9395C31.2298 22.5476 31.5873 27.9995 32.0936 30.119C33.0044 34.6327 33.4166 39.3287 34.7388 43.7641C35.1385 44.9727 35.5839 46.1959 36.512 46.9986H45.4618C47.3479 45.0705 46.8139 40.6036 46.8298 38.1271C46.8243 34.4049 45.3108 24.4611 49.6925 23.0513C53.5486 22.9346 53.5853 29.2332 53.7522 32.0199C53.8125 34.7417 53.9441 37.5773 53.7972 40.3242C53.7176 41.5949 53.5409 42.8489 53.1503 44.0554C52.7527 45.3045 52.1764 46.3105 52.1757 46.9986H61.9366C62.0897 46.3734 61.9595 45.4128 61.6117 43.9241C61.298 42.0036 61.2696 40.0426 61.2218 38.0942V38.0649C60.8207 33.2914 62.3307 19.7776 58.0349 17.3311C57.7911 17.2054 57.4821 17.095 57.124 17.0007H49.6849C49.1267 17.1495 48.6577 17.3409 48.3301 17.5777C44.9901 20.5712 44.7539 27.7137 44.4575 32.0723C44.2587 34.0235 44.6209 38.2857 42.9835 39.3147C40.9409 39.3538 40.2828 33.6442 39.9019 32.0094C39.2806 28.6722 38.8137 25.2044 38.0615 21.8469C37.5683 19.4661 36.8729 17.6741 34.8912 17H28.1081C27.7527 17.1076 27.4078 17.2438 27.0788 17.4171C26.2136 17.8236 25.6284 18.8254 24.705 18.9938C23.1341 18.7423 22.7892 17.5756 20.9855 17H10.3865C10.1641 17.0817 9.96535 17.183 9.79981 17.3088C9.19997 17.7028 8.74005 18.6711 8.32515 19.5541C7.63526 21.0686 6.85534 22.9653 6.22848 24.6671C4.16022 29.9528 2.95846 35.5492 2.30667 41.1464C2.19169 42.9963 1.57246 45.352 2.51101 46.9979H13.8172L13.8186 47ZM6.11281 40.6134C6.16614 39.2281 6.46537 37.8225 6.77568 36.4637C7.3021 34.2296 7.89778 31.9514 8.46022 29.7516C9.04828 27.5964 9.53868 25.3064 10.7349 23.4048C11.6665 21.8979 13.3254 20.7445 15.0432 21.4145C18.3229 22.695 19.8357 29.477 17.4654 32.1268L17.4488 32.1471C15.3965 34.4825 12.3488 35.0421 11.9921 38.7614C11.7344 40.6888 12.3093 43.3386 10.9552 44.8574C9.92933 45.9752 8.22471 45.6838 7.22313 44.5109C6.30052 43.4378 6.06363 42.0274 6.11212 40.6127L6.11281 40.6134Z" fill="#f0eff0"/>
</svg>
